<?xml version="1.0" encoding="UTF-8"?>
<svg version="1.1" xmlns="http://www.w3.org/2000/svg" width="512" height="512">
<path d="M0 0 C6.86428913 -0.10241915 13.72837729 -0.17188765 20.59326172 -0.21972656 C22.9227637 -0.23969464 25.25221653 -0.26687879 27.58154297 -0.30175781 C48.17717219 -0.60216596 65.36522068 0.75477486 81.10864258 15.57421875 C87.10153118 21.4683565 91.98844881 27.57457823 96 35 C96.59296875 36.07894531 97.1859375 37.15789062 97.796875 38.26953125 C110.4572838 62.37300185 113.21392403 88.14162062 113.125 114.9375 C113.12278442 115.81828217 113.12056885 116.69906433 113.11828613 117.60653687 C113.10024714 123.73792078 113.0575592 129.8688684 113 136 C112.9937561 136.73021362 112.98751221 137.46042725 112.9810791 138.21276855 C112.69315907 169.39065647 107.53094772 197.53968429 87 222 C86.54367187 222.60070312 86.08734375 223.20140625 85.6171875 223.8203125 C74.67965099 237.75785903 58.01111676 243.87366551 41 246 C38.4681696 246.09641717 35.93428473 246.14570219 33.40065002 246.15821838 C32.66779673 246.16315636 31.93494344 246.16809434 31.17988247 246.17318195 C28.74174994 246.18845266 26.30364353 246.19688905 23.86547852 246.20532227 C22.11077142 246.214909 20.35606659 246.22491955 18.60136414 246.23532104 C13.84987865 246.26228995 9.09838331 246.28334277 4.34686399 246.30332303 C-0.62327275 246.32523217 -5.59337939 246.3525967 -10.56349182 246.37937927 C-19.96972313 246.42923964 -29.3759712 246.4742031 -38.78223521 246.51740164 C-49.49321725 246.56683098 -60.2041691 246.62172794 -70.91512191 246.67708123 C-92.94338646 246.79079906 -114.97167985 246.89766022 -137 247 C-137.02696365 248.79158489 -137.04637917 250.58328473 -137.0625 252.375 C-137.07410156 253.37273437 -137.08570313 254.37046875 -137.09765625 255.3984375 C-137.18006602 257.98432453 -137.18006602 257.98432453 -136 260 C-135.3997787 260.00331015 -134.7995574 260.00662029 -134.18114758 260.01003075 C-119.58425673 260.09121007 -104.98746285 260.18328581 -90.39071941 260.28752708 C-83.33187215 260.33767371 -76.27303662 260.38411633 -69.21411133 260.421875 C-62.40596887 260.45830257 -55.59795942 260.50500475 -48.78992653 260.55806351 C-46.18834462 260.57664219 -43.5867355 260.59173719 -40.98511314 260.60334396 C-37.35021259 260.62014689 -33.71560468 260.64916777 -30.08081055 260.68115234 C-28.45593468 260.68439262 -28.45593468 260.68439262 -26.79823303 260.68769836 C-25.80965302 260.69886185 -24.821073 260.71002533 -23.80253601 260.7215271 C-22.94250316 260.72705786 -22.0824703 260.73258862 -21.19637585 260.73828697 C-19 261 -19 261 -16 263 C-15.58781433 265.28573608 -15.58781433 265.28573608 -15.53588867 268.17724609 C-15.50963913 269.25952484 -15.48338959 270.34180359 -15.4563446 271.45687866 C-15.44368057 272.63384308 -15.43101654 273.8108075 -15.41796875 275.0234375 C-15.3952742 276.23512604 -15.37257965 277.44681458 -15.34919739 278.69522095 C-15.3045057 281.26919324 -15.2671829 283.84330221 -15.23657227 286.41748047 C-15.18812644 290.32447939 -15.11255889 294.23023951 -15.03320312 298.13671875 C-14.9931517 300.6405993 -14.95469137 303.14450591 -14.91796875 305.6484375 C-14.89518356 306.80515961 -14.87239838 307.96188171 -14.84892273 309.15365601 C-14.70798361 324.11999666 -17.00850256 337.02672467 -27.5625 348.25 C-55.56385644 374.25423146 -99.86924893 376.24519551 -136.0625 376.1875 C-137.13041779 376.18659363 -137.13041779 376.18659363 -138.21990967 376.18566895 C-166.86135579 376.12026477 -197.97750125 374.1310583 -224 361 C-224.83402344 360.60554688 -225.66804688 360.21109375 -226.52734375 359.8046875 C-241.25464863 352.40934072 -253.56080656 340.84022855 -259 325 C-260.85153187 317.39477416 -261.28923176 309.98774744 -261.25878906 302.18896484 C-261.2622937 301.0637442 -261.26579834 299.93852356 -261.26940918 298.77920532 C-261.27815159 295.08971838 -261.2724014 291.40042612 -261.265625 287.7109375 C-261.26697436 285.12179528 -261.26891715 282.53265332 -261.27142334 279.94351196 C-261.27436497 274.52530257 -261.27030412 269.1071649 -261.26074219 263.68896484 C-261.24989339 257.47072506 -261.25336277 251.25261684 -261.264395 245.03438032 C-261.2746572 239.00359091 -261.27345221 232.97286452 -261.26763153 226.94206619 C-261.2663085 224.39948126 -261.26789486 221.85689292 -261.27259064 219.31431198 C-261.31022538 193.19886238 -261.19149439 169.38553915 -242.3515625 149.25390625 C-238.86345059 145.91064949 -235.19243489 143.37833189 -231 141 C-229.88044922 140.34064453 -229.88044922 140.34064453 -228.73828125 139.66796875 C-218.42272041 134.02424869 -205.84472584 130.89198279 -194.10243225 130.86196899 C-192.94629425 130.85651566 -191.79015625 130.85106232 -190.59898376 130.84544373 C-189.34436844 130.8444014 -188.08975311 130.84335907 -186.79711914 130.84228516 C-185.45112952 130.83761133 -184.10514146 130.83246683 -182.75915527 130.82688904 C-179.86672681 130.81564176 -176.97430844 130.8071911 -174.08186531 130.80076981 C-169.49435281 130.79003615 -164.90691269 130.76977434 -160.31944275 130.74765015 C-147.27606553 130.68591506 -134.23269234 130.63185143 -121.18920898 130.59863281 C-113.98036447 130.58019366 -106.7716413 130.55113971 -99.56288618 130.5106281 C-95.75682449 130.48970697 -91.95091474 130.4741223 -88.14479256 130.47182083 C-84.55527605 130.46964778 -80.96607541 130.4535135 -77.37665558 130.42743111 C-75.45805644 130.41699677 -73.53939516 130.42094853 -71.62077332 130.4256134 C-53.19529636 130.25262082 -35.71824846 125.9028281 -22 113 C-21.30390625 112.36835938 -20.6078125 111.73671875 -19.890625 111.0859375 C-9.74707182 100.90306823 -4.51500842 86.0598445 -3 72 C-2.90501221 71.1349585 -2.81002441 70.26991699 -2.7121582 69.37866211 C-1.45521645 55.38717311 -1.96860677 41.28288942 -2.09594727 27.25219727 C-2.12608505 23.69807434 -2.14388368 20.14405329 -2.16015625 16.58984375 C-2.18034569 14.95546608 -2.18034569 14.95546608 -2.20094299 13.28807068 C-2.20601112 11.76476891 -2.20601112 11.76476891 -2.21118164 10.21069336 C-2.21863907 9.32248398 -2.2260965 8.4342746 -2.23377991 7.51914978 C-1.97290317 4.70801183 -1.16180992 2.55994848 0 0 Z M-84.9375 300.04296875 C-90.00568904 306.7315163 -90.72899342 311.59016283 -90 320 C-88.25627826 326.70833075 -83.82115171 330.54555884 -78 334 C-72.11364627 335.96211791 -65.39764423 336.016986 -59.6875 333.4375 C-54.75734847 330.58266893 -51.45003776 326.50461068 -48.625 321.625 C-46.91230518 314.43168174 -47.75347186 308.81863161 -51.3046875 302.3046875 C-54.89068758 297.42971043 -60.05659523 294.14994593 -66 293 C-73.28682932 292.12558048 -79.89215132 294.72297407 -84.9375 300.04296875 Z " fill="#FFDB8A" transform="translate(395,133)"/>
<path d="M0 0 C0.62003906 0.45761719 1.24007813 0.91523438 1.87890625 1.38671875 C11.60083762 8.97721998 18.87571487 20.85905405 21 33 C21.29438988 37.28813195 21.2938009 41.56624263 21.29052734 45.86328125 C21.29724457 47.13597366 21.30396179 48.40866608 21.31088257 49.71992493 C21.32846069 53.19357471 21.33323471 56.66712577 21.33451414 60.14081573 C21.33594195 62.31929023 21.34022359 64.49774014 21.34550858 66.6762085 C21.36398794 74.30026828 21.37218258 81.92425841 21.37060547 89.54833984 C21.36940745 96.61469979 21.39044817 103.68075265 21.4220928 110.74703503 C21.44840791 116.84422561 21.45896631 122.94131692 21.45769465 129.03856373 C21.45718909 132.66641366 21.46264276 136.29399092 21.48405075 139.92178345 C21.60542702 162.05458256 21.37643124 183.9751591 5.1171875 201.1015625 C-16.79387203 220.74874872 -42.926444 221.45053891 -70.89400911 221.40731621 C-74.64124765 221.40550636 -78.3883923 221.42304209 -82.1355896 221.43908691 C-92.43685263 221.47982287 -102.73810642 221.49145181 -113.03943634 221.50261688 C-122.50054118 221.51317432 -131.96152346 221.53016838 -141.42255342 221.57071257 C-145.85499356 221.58887248 -150.28714043 221.59303345 -154.71960855 221.58577728 C-156.81900246 221.58461127 -158.91824899 221.59031955 -161.0176239 221.59895325 C-163.55450865 221.609349 -166.0914689 221.60959663 -168.62834167 221.59660339 C-187.63454978 221.73231263 -204.2128405 226.60262556 -218.25 239.8125 C-237.83193332 260.34003975 -236.44730563 288.78292187 -236.55297852 315.109375 C-236.57815385 321.26506796 -236.61739564 327.4205307 -236.67487907 333.57600594 C-236.69117307 335.71547595 -236.69497807 337.85472315 -236.69789124 339.99424744 C-236.70807785 341.280616 -236.71826447 342.56698456 -236.72875977 343.89233398 C-236.73517235 345.59413063 -236.73517235 345.59413063 -236.74171448 347.33030701 C-237 350 -237 350 -239 352 C-240.93261719 352.31884766 -240.93261719 352.31884766 -243.296875 352.4140625 C-244.16578369 352.45297607 -245.03469238 352.49188965 -245.92993164 352.53198242 C-247.32586548 352.57802612 -247.32586548 352.57802612 -248.75 352.625 C-250.18363892 352.67974487 -250.18363892 352.67974487 -251.64624023 352.7355957 C-254.43059168 352.8357995 -257.21500187 352.92010037 -260 353 C-261.25425781 353.04253906 -262.50851562 353.08507812 -263.80078125 353.12890625 C-285.3418882 353.51587224 -305.01800247 350.67032841 -321.25 335.1875 C-350.5643927 303.91088629 -354.11295738 256.68903443 -353.10498047 216.00683594 C-352.03239823 185.28608513 -345.44714367 152.87818365 -325 129 C-324.50371094 128.40832031 -324.00742187 127.81664062 -323.49609375 127.20703125 C-311.47351646 114.0394466 -293.59505721 106.62129367 -276.04631805 105.81931686 C-271.43291441 105.72998801 -266.82002537 105.75209382 -262.20605469 105.77294922 C-260.44076036 105.77351443 -258.67546556 105.77319462 -256.91017151 105.77206421 C-252.15272742 105.771494 -247.39538566 105.78319424 -242.6379652 105.79721212 C-237.65320044 105.80977512 -232.66843294 105.81089435 -227.68365479 105.81326294 C-218.25984308 105.81946142 -208.83607817 105.83585 -199.412287 105.85596192 C-188.67703211 105.87837191 -177.94177491 105.88932714 -167.20650244 105.89935279 C-145.13764154 105.92021778 -123.06882538 105.95576807 -101 106 C-101 101.05 -101 96.1 -101 91 C-102.48639984 91.00222061 -103.97279968 91.00444122 -105.50424194 91.00672913 C-119.48395688 91.02696455 -133.46366991 91.04203407 -147.44339561 91.05181217 C-154.63121503 91.05697308 -161.81902353 91.06401189 -169.00683594 91.07543945 C-175.27019115 91.08539253 -181.53353845 91.09185492 -187.79690135 91.09408849 C-191.11468721 91.09539454 -194.43244512 91.09899419 -197.75022507 91.10573006 C-201.44987096 91.11294526 -205.14946935 91.11399073 -208.84912109 91.11352539 C-210.50744209 91.1189183 -210.50744209 91.1189183 -212.19926453 91.12442017 C-213.20329819 91.1230455 -214.20733185 91.12167084 -215.24179077 91.12025452 C-216.55534577 91.12163721 -216.55534577 91.12163721 -217.89543724 91.12304783 C-220 91 -220 91 -222 90 C-223.04239524 86.87281428 -223.14532174 84.64049872 -223.17700195 81.35791016 C-223.19625481 79.61932236 -223.19625481 79.61932236 -223.21589661 77.84561157 C-223.22328354 76.58945038 -223.23067047 75.33328918 -223.23828125 74.0390625 C-223.246353 72.7423764 -223.25442474 71.44569031 -223.26274109 70.10971069 C-223.27776661 67.35748425 -223.28760117 64.60528353 -223.29516602 61.85302734 C-223.3061467 58.36217713 -223.34044689 54.87197923 -223.38033772 51.38135719 C-223.41313053 48.01728834 -223.41731281 44.65327859 -223.42578125 41.2890625 C-223.44328934 40.05314362 -223.46079742 38.81722473 -223.47883606 37.54385376 C-223.44398604 23.3613936 -219.79470053 13.13630095 -210.0390625 2.953125 C-193.59116912 -12.82217795 -171.71239217 -17.32879122 -150 -21 C-149.02144043 -21.16806152 -148.04288086 -21.33612305 -147.03466797 -21.50927734 C-102.19765802 -28.83906128 -37.27645552 -29.64068251 0 0 Z M-186.875 24.875 C-190.63124122 30.39888414 -191.49666491 35.29840265 -190.53515625 41.796875 C-188.81076316 48.89583631 -184.28001909 53.35755343 -178.203125 57.109375 C-172.86930803 59.26559888 -165.8522277 59.08357787 -160.51171875 57.0546875 C-155.2566203 53.90756639 -151.3549929 49.69371702 -149 44 C-148.09508373 36.79877156 -148.13539512 30.53283847 -152.5703125 24.58203125 C-156.34772955 20.40210255 -160.30351968 17.33884343 -165.953125 16.62890625 C-175.23229251 16.44200359 -180.55222228 18.07710025 -186.875 24.875 Z " fill="#3D3356" transform="translate(357,30)"/>
</svg>
